<svg xmlns="http://www.w3.org/2000/svg" xmlns:osb="http://www.openswatchbook.org/uri/2009/osb" xmlns:svg="http://www.w3.org/2000/svg" xmlns:xlink="http://www.w3.org/1999/xlink" id="svg2" width="200" height="200" version="1.1"><defs id="defs4"><linearGradient id="linearGradient5197" osb:paint="gradient"><stop style="stop-color:#000;stop-opacity:1" id="stop5199" offset="0"/><stop style="stop-color:#000;stop-opacity:0" id="stop5201" offset="1"/></linearGradient></defs><metadata id="metadata7"/><g id="layer1" transform="translate(0,-852.36218)"><rect style="fill:#fff;stroke:#5a5a5a;stroke-width:3.90000010000000019;stroke-linecap:round;stroke-linejoin:round;stroke-miterlimit:4;stroke-opacity:1;stroke-dasharray:none;fill-opacity:1" id="rect2985" width="120" height="120" x="40" y="892.362" rx="3" ry="3"/><rect style="fill:none;stroke:#000;stroke-width:1;stroke-linecap:round;stroke-linejoin:round;stroke-miterlimit:4;stroke-opacity:1;stroke-dasharray:none" id="rect5207" width="37" height="37" x="42.678" y="895.03" rx="1" ry="1"/><use id="use5470" x="0" y="0" transform="translate(0,0.05761218)" xlink:href="#rect5207"/><use id="use5472" x="0" y="0" transform="translate(0,38.655684)" xlink:href="#rect5207"/><use id="use5474" x="0" y="0" transform="translate(0,77.322638)" xlink:href="#rect5207"/><use id="use5476" x="0" y="0" transform="translate(38.665,-0.00209868)" xlink:href="#rect5207"/><use id="use5478" x="0" y="0" transform="translate(38.665,38.635282)" xlink:href="#rect5207"/><use id="use5480" x="0" y="0" transform="translate(38.665,77.327546)" xlink:href="#rect5207"/><use id="use5482" x="0" y="0" transform="translate(77.33,0.02355739)" xlink:href="#rect5207"/><use id="use5484" x="0" y="0" transform="translate(77.33,38.668347)" xlink:href="#rect5207"/><use id="use5486" x="0" y="0" transform="translate(77.33,77.355518)" xlink:href="#rect5207"/></g><g id="layer2" style="display:none"><rect style="fill:#fff;fill-opacity:1;stroke:none" id="rect5488" width="77.071" height="38.307" x="80.455" y="42.169" rx="1.004" ry=".998"/><rect style="fill:none;stroke:#000;stroke-width:1;stroke-linecap:round;stroke-linejoin:round;stroke-miterlimit:4;stroke-opacity:1;stroke-dasharray:none" id="rect5207-2" width="37" height="37" x="94.448" y="42.668" rx="1" ry="1"/></g><g id="layer3" style="display:inline"><path style="fill:#fff;fill-opacity:1;stroke:#000;stroke-width:1;stroke-linecap:round;stroke-linejoin:round;stroke-miterlimit:4;stroke-opacity:1" id="rect5499" d="m 51.611676,33.546576 7.766337,-7.766337 c 0.393268,-0.393268 1.02459,-0.395148 1.415522,-0.0042 l 7.774769,7.774769 c 0.390932,0.390932 0.513749,1.618085 -0.0042,1.415522 l -7.766337,-3.037235 c -0.517964,-0.202562 -0.900371,-0.19647 -1.415522,0.0042 l -7.774769,3.028803 c -0.515151,0.200686 -0.389052,-1.022254 0.0042,-1.415522 z"/><path style="fill:#fff;fill-opacity:1;stroke:#000;stroke-width:1;stroke-linecap:round;stroke-linejoin:round;stroke-miterlimit:4;stroke-opacity:1" id="rect5499-6" d="m 91.882847,33.546576 7.766335,-7.766337 c 0.393268,-0.393268 1.024588,-0.395148 1.415518,-0.0042 l 7.77477,7.774769 c 0.39093,0.390932 0.51375,1.618085 -0.004,1.415522 l -7.76634,-3.037235 c -0.51796,-0.202562 -0.90037,-0.19647 -1.415518,0.0042 l -7.774765,3.028803 c -0.515151,0.200686 -0.389052,-1.022254 0.0042,-1.415522 z"/><path style="fill:#fff;fill-opacity:1;stroke:#000;stroke-width:1;stroke-linecap:round;stroke-linejoin:round;stroke-miterlimit:4;stroke-opacity:1" id="rect5499-5" d="m 130.87455,33.546576 7.76634,-7.766337 c 0.39327,-0.393268 1.02459,-0.395148 1.41552,-0.0042 l 7.77477,7.774769 c 0.39093,0.390932 0.51375,1.618085 -0.004,1.415522 l -7.76634,-3.037235 c -0.51796,-0.202562 -0.90037,-0.19647 -1.41552,0.0042 l -7.77477,3.028803 c -0.51515,0.200686 -0.38905,-1.022254 0.004,-1.415522 z"/><path style="fill:#fff;fill-opacity:1;stroke:#000;stroke-width:1;stroke-linecap:round;stroke-linejoin:round;stroke-miterlimit:4;stroke-opacity:1" id="rect5499-62" d="m 146.34332,167.0559 -7.76633,7.76633 c -0.39327,0.39327 -1.02459,0.39515 -1.41553,0.004 l -7.77477,-7.77476 c -0.39093,-0.39094 -0.51375,-1.61809 0.004,-1.41553 l 7.76634,3.03724 c 0.51797,0.20256 0.90037,0.19647 1.41552,-0.004 l 7.77497,-3.0288 c 0.51515,-0.20069 0.38905,1.02225 -0.004,1.41552 z"/><path style="fill:#fff;fill-opacity:1;stroke:#000;stroke-width:1;stroke-linecap:round;stroke-linejoin:round;stroke-miterlimit:4;stroke-opacity:1" id="rect5499-6-2" d="m 106.07215,167.0559 -7.766336,7.76633 c -0.39326,0.39327 -1.02458,0.39515 -1.41551,0.004 l -7.77477,-7.77476 c -0.39093,-0.39094 -0.51375,-1.61809 0.004,-1.41553 l 7.76634,3.03724 c 0.51796,0.20256 0.90037,0.19647 1.41551,-0.004 l 7.774766,-3.0288 c 0.51515,-0.20069 0.38905,1.02225 -0.004,1.41552 z"/><path style="fill:#fff;fill-opacity:1;stroke:#000;stroke-width:1;stroke-linecap:round;stroke-linejoin:round;stroke-miterlimit:4;stroke-opacity:1" id="rect5499-5-1" d="m 67.080454,167.0559 -7.766338,7.76633 c -0.39327,0.39327 -1.02459,0.39515 -1.41552,0.004 l -7.77477,-7.77476 c -0.39093,-0.39094 -0.51375,-1.61809 0.004,-1.41553 l 7.76634,3.03724 c 0.51796,0.20256 0.90037,0.19647 1.41552,-0.004 l 7.774768,-3.0288 c 0.51515,-0.20069 0.38905,1.02225 -0.004,1.41552 z"/><path style="fill:#aaa;fill-opacity:1;stroke:#000;stroke-width:1;stroke-linecap:round;stroke-linejoin:round;stroke-miterlimit:4;stroke-opacity:1" id="rect5499-62-5" d="m 167.17335,53.075874 7.76633,7.76633 c 0.39327,0.39327 0.39515,1.02459 0.004,1.41553 l -7.77476,7.77477 c -0.39094,0.390934 -1.61809,0.513754 -1.41553,-0.004 l 3.03724,-7.76634 c 0.20256,-0.51797 0.19647,-0.90037 -0.004,-1.41552 l -3.0288,-7.77497 c -0.20069,-0.51515 1.02225,-0.38905 1.41552,0.004 z"/><path style="fill:#fff;fill-opacity:1;stroke:#000;stroke-width:1;stroke-linecap:round;stroke-linejoin:round;stroke-miterlimit:4;stroke-opacity:1" id="rect5499-6-2-1" d="m 167.17335,91.579282 7.76633,7.76634 c 0.39327,0.39326 0.39515,1.024578 0.004,1.415508 l -7.77476,7.77477 c -0.39094,0.39093 -1.61809,0.51375 -1.41553,-0.004 l 3.03724,-7.76634 c 0.20256,-0.51796 0.19647,-0.900368 -0.004,-1.415508 l -3.0288,-7.77477 c -0.20069,-0.51515 1.02225,-0.38905 1.41552,0.004 z"/><path style="fill:#fff;fill-opacity:1;stroke:#000;stroke-width:1;stroke-linecap:round;stroke-linejoin:round;stroke-miterlimit:4;stroke-opacity:1" id="rect5499-5-1-0" d="m 167.17335,129.57098 7.76633,7.76634 c 0.39327,0.39327 0.39515,1.02459 0.004,1.41552 l -7.77476,7.77477 c -0.39094,0.39093 -1.61809,0.51375 -1.41553,-0.004 l 3.03724,-7.76634 c 0.20256,-0.51796 0.19647,-0.90037 -0.004,-1.41552 l -3.0288,-7.77477 c -0.20069,-0.51515 1.02225,-0.38905 1.41552,0.004 z"/><path style="fill:#fff;fill-opacity:1;stroke:#000;stroke-width:1;stroke-linecap:round;stroke-linejoin:round;stroke-miterlimit:4;stroke-opacity:1" id="rect5499-62-5-0" d="m 33.293976,146.38103 -7.76633,-7.76633 c -0.39327,-0.39327 -0.39515,-1.02459 -0.004,-1.41553 l 7.77476,-7.77477 c 0.39094,-0.39093 1.61809,-0.51375 1.41553,0.004 l -3.03724,7.76634 c -0.20256,0.51797 -0.19647,0.90037 0.004,1.41552 l 3.0288,7.77497 c 0.20069,0.51515 -1.02225,0.38905 -1.41552,-0.004 z"/><path style="fill:#fff;fill-opacity:1;stroke:#000;stroke-width:1;stroke-linecap:round;stroke-linejoin:round;stroke-miterlimit:4;stroke-opacity:1" id="rect5499-6-2-1-5" d="m 33.293976,108.48486 -7.76633,-7.76626 c -0.39327,-0.39326 -0.39515,-1.02458 -0.004,-1.41551 l 7.77476,-7.77477 c 0.39094,-0.39093 1.61809,-0.51375 1.41553,0.004 l -3.03724,7.76634 c -0.20256,0.51796 -0.19647,0.90037 0.004,1.41551 l 3.0288,7.77469 c 0.20069,0.51515 -1.02225,0.38905 -1.41552,-0.004 z"/><path style="fill:#fff;fill-opacity:1;stroke:#000;stroke-width:1;stroke-linecap:round;stroke-linejoin:round;stroke-miterlimit:4;stroke-opacity:1" id="rect5499-5-1-0-8" d="m 33.293976,69.86824 -7.76633,-7.766337 c -0.39327,-0.39327 -0.39515,-1.02459 -0.004,-1.41552 l 7.77476,-7.77477 c 0.39094,-0.39093 1.61809,-0.51375 1.41553,0.004 l -3.03724,7.76634 c -0.20256,0.51796 -0.19647,0.90037 0.004,1.41552 l 3.0288,7.774767 c 0.20069,0.51515 -1.02225,0.38905 -1.41552,-0.004 z"/></g></svg>